<svg xmlns="http://www.w3.org/2000/svg" viewBox="0 0 59.19 59.19"><defs><style>.a{opacity:.25}.b{fill:#fff}</style></defs><title>upload-symbol</title><g class="a"><path class="b" d="M26.76 26.76L38.1 38.1 32.43 38.1 32.43 57.94 21.09 57.94 21.09 38.1 15.42 38.1 26.76 26.76z"/></g><path class="b" d="M21.09 59.19h11.34a1.25 1.25 0 0 0 1.25-1.25V39.35h4.42a1.25 1.25 0 0 0 .9-2.13L27.65 25.88a1.26 1.26 0 0 0-.89-.37 1.22 1.22 0 0 0-.88.37L14.54 37.22a1.23 1.23 0 0 0-.27 1.36 1.24 1.24 0 0 0 1.15.77h4.42v18.59a1.25 1.25 0 0 0 1.25 1.25zm-2.65-22.34l8.32-8.32 8.32 8.32h-2.65a1.25 1.25 0 0 0-1.25 1.25v18.59h-8.84V38.1a1.25 1.25 0 0 0-1.25-1.25z"/><path class="b" d="M49.55 9.64A15.4 15.4 0 0 0 21.27 9a9.92 9.92 0 0 0-3-.48 9.77 9.77 0 0 0-9.77 9.74 9 9 0 0 0 .15 1.64 9.76 9.76 0 0 0 1.1 19.45 1.25 1.25 0 0 0 0-2.5 7.26 7.26 0 0 1 0-14.51h.5a1.24 1.24 0 0 0 1-.53 1.28 1.28 0 0 0 .16-1.14 7.23 7.23 0 0 1 10-8.94 1.23 1.23 0 0 0 1 0 1.28 1.28 0 0 0 .71-.73 12.9 12.9 0 0 1 24.28 0 1.26 1.26 0 0 0 .75.75 12.91 12.91 0 0 1-4.39 25.06 1.25 1.25 0 0 0 0 2.5 15.42 15.42 0 0 0 5.79-29.67z"/></svg>